# xmcd CD database file
#
# Track frame offsets:
#	150
#	7773
#	31373
#	48301
#	79911
#	95093
#	115258
#	141655
#	160953
#	178869
#	202225
#	218342
#	250630
#	268380
#
# Disc length: 3662 seconds
#
# Revision: 0
# Processed by: cddbd v1.5.1PL2 Copyright (c) Steve Scherf et al.
# Submitted via: CDex 1.51
#
DISCID=c90e4c0e
DTITLE=Pudding - Pesadelo
DYEAR=2005
DGENRE=Jazz
TTITLE0=Cradle song
TTITLE1=Nightmare (feat. 신연아)
TTITLE2=The necktie's complaint (feat. Boschi Alexandre and 신연아)
TTITLE3=Rainbow sherbet
TTITLE4=Lamento-part1
TTITLE5=Tear drops
TTITLE6=You
TTITLE7=Seaside train
TTITLE8=Smile! (feat. 신연아 and 이지영)
TTITLE9=Lamento-part2 (feat. 전제덕)
TTITLE10=Death and the compass
TTITLE11=Oblivion
TTITLE12=Happy birthday, mom
TTITLE13=The last flight to maldive
EXTD=YEAR: 2005
EXTT0=
EXTT1=
EXTT2=
EXTT3=
EXTT4=
EXTT5=
EXTT6=
EXTT7=
EXTT8=
EXTT9=
EXTT10=
EXTT11=
EXTT12=
EXTT13=
PLAYORDER=
